<mxfile host="app.diagrams.net" modified="2024-06-07T13:48:33.672Z" agent="Mozilla/5.0 (Windows NT 10.0; Win64; x64) AppleWebKit/537.36 (KHTML, like Gecko) Chrome/125.0.0.0 Safari/537.36" etag="nAg-_6E2DUptT2zbx-8B" version="24.2.8" type="github">
  <diagram name="Página-1" id="RkdtyldeLLYBpPvGMGfw">
    <mxGraphModel dx="1859" dy="471" grid="1" gridSize="10" guides="1" tooltips="1" connect="1" arrows="1" fold="1" page="1" pageScale="1" pageWidth="827" pageHeight="1169" math="0" shadow="0">
      <root>
        <mxCell id="0" />
        <mxCell id="1" parent="0" />
        <mxCell id="kAYmLj9WjToZqsz8n3UT-1" value="Iphone&lt;div&gt;-------------------------------------------&lt;/div&gt;&lt;div&gt;implements Aparelho Telefonico, Navegador na internet, reprodutor musical&lt;/div&gt;" style="rounded=0;whiteSpace=wrap;html=1;fillColor=#008a00;strokeColor=#005700;fontColor=#ffffff;" vertex="1" parent="1">
          <mxGeometry x="-530" y="490" width="180" height="120" as="geometry" />
        </mxCell>
        <mxCell id="kAYmLj9WjToZqsz8n3UT-28" value="" style="edgeStyle=orthogonalEdgeStyle;rounded=0;orthogonalLoop=1;jettySize=auto;html=1;" edge="1" parent="1" source="kAYmLj9WjToZqsz8n3UT-2">
          <mxGeometry relative="1" as="geometry">
            <mxPoint x="-414" y="490" as="targetPoint" />
          </mxGeometry>
        </mxCell>
        <mxCell id="kAYmLj9WjToZqsz8n3UT-2" value="" style="rounded=0;whiteSpace=wrap;html=1;fillColor=#006666;" vertex="1" parent="1">
          <mxGeometry x="-510" y="260" width="160" height="90" as="geometry" />
        </mxCell>
        <mxCell id="kAYmLj9WjToZqsz8n3UT-9" value="" style="endArrow=none;html=1;rounded=0;entryX=1;entryY=0.5;entryDx=0;entryDy=0;" edge="1" parent="1" target="kAYmLj9WjToZqsz8n3UT-2">
          <mxGeometry width="50" height="50" relative="1" as="geometry">
            <mxPoint x="-510" y="304.5" as="sourcePoint" />
            <mxPoint x="-350" y="305.5" as="targetPoint" />
          </mxGeometry>
        </mxCell>
        <mxCell id="kAYmLj9WjToZqsz8n3UT-11" value="&lt;font style=&quot;font-size: 9px;&quot;&gt;Repredutor Musical&lt;/font&gt;" style="text;html=1;align=center;verticalAlign=middle;whiteSpace=wrap;rounded=0;" vertex="1" parent="1">
          <mxGeometry x="-470" y="270" width="90" height="30" as="geometry" />
        </mxCell>
        <mxCell id="kAYmLj9WjToZqsz8n3UT-12" value="&lt;font style=&quot;font-size: 8px;&quot;&gt;Tocar();&lt;/font&gt;&lt;div&gt;&lt;font style=&quot;font-size: 8px;&quot;&gt;Pausar();&lt;/font&gt;&lt;/div&gt;&lt;div&gt;&lt;font style=&quot;font-size: 8px;&quot;&gt;SelecionarMusica();&lt;/font&gt;&lt;/div&gt;" style="text;html=1;align=left;verticalAlign=middle;whiteSpace=wrap;rounded=0;" vertex="1" parent="1">
          <mxGeometry x="-510" y="310" width="130" height="30" as="geometry" />
        </mxCell>
        <mxCell id="kAYmLj9WjToZqsz8n3UT-30" value="" style="edgeStyle=orthogonalEdgeStyle;rounded=0;orthogonalLoop=1;jettySize=auto;html=1;" edge="1" parent="1" source="kAYmLj9WjToZqsz8n3UT-15" target="kAYmLj9WjToZqsz8n3UT-29">
          <mxGeometry relative="1" as="geometry">
            <Array as="points">
              <mxPoint x="-255" y="380" />
              <mxPoint x="-390" y="380" />
            </Array>
          </mxGeometry>
        </mxCell>
        <mxCell id="kAYmLj9WjToZqsz8n3UT-15" value="" style="rounded=0;whiteSpace=wrap;html=1;fillColor=#1ba1e2;fontColor=#ffffff;strokeColor=#006EAF;" vertex="1" parent="1">
          <mxGeometry x="-330" y="260" width="150" height="90" as="geometry" />
        </mxCell>
        <mxCell id="kAYmLj9WjToZqsz8n3UT-16" value="" style="endArrow=none;html=1;rounded=0;entryX=1;entryY=0.5;entryDx=0;entryDy=0;" edge="1" parent="1" target="kAYmLj9WjToZqsz8n3UT-15">
          <mxGeometry width="50" height="50" relative="1" as="geometry">
            <mxPoint x="-330" y="304.5" as="sourcePoint" />
            <mxPoint x="-170" y="305" as="targetPoint" />
          </mxGeometry>
        </mxCell>
        <mxCell id="kAYmLj9WjToZqsz8n3UT-17" value="Aparelho Telefónico" style="text;html=1;align=center;verticalAlign=middle;whiteSpace=wrap;rounded=0;" vertex="1" parent="1">
          <mxGeometry x="-310" y="270" width="110" height="30" as="geometry" />
        </mxCell>
        <mxCell id="kAYmLj9WjToZqsz8n3UT-19" value="&lt;font style=&quot;font-size: 10px;&quot;&gt;Ligar();&lt;/font&gt;&lt;div style=&quot;font-size: 10px;&quot;&gt;&lt;font style=&quot;font-size: 10px;&quot;&gt;Atender();&lt;/font&gt;&lt;/div&gt;&lt;div style=&quot;font-size: 10px;&quot;&gt;&lt;font style=&quot;font-size: 10px;&quot;&gt;IniciarCorreioDeVoz();&lt;/font&gt;&lt;/div&gt;" style="text;html=1;align=left;verticalAlign=middle;whiteSpace=wrap;rounded=0;" vertex="1" parent="1">
          <mxGeometry x="-330" y="310" width="60" height="30" as="geometry" />
        </mxCell>
        <mxCell id="kAYmLj9WjToZqsz8n3UT-20" value="" style="rounded=0;whiteSpace=wrap;html=1;fillColor=#A680B8;" vertex="1" parent="1">
          <mxGeometry x="-690" y="260" width="160" height="90" as="geometry" />
        </mxCell>
        <mxCell id="kAYmLj9WjToZqsz8n3UT-21" value="" style="endArrow=none;html=1;rounded=0;entryX=1;entryY=0.5;entryDx=0;entryDy=0;" edge="1" parent="1" target="kAYmLj9WjToZqsz8n3UT-20">
          <mxGeometry width="50" height="50" relative="1" as="geometry">
            <mxPoint x="-690" y="304.5" as="sourcePoint" />
            <mxPoint x="-530" y="305.5" as="targetPoint" />
          </mxGeometry>
        </mxCell>
        <mxCell id="kAYmLj9WjToZqsz8n3UT-22" value="&lt;font style=&quot;font-size: 9px;&quot;&gt;Navegador Internet&lt;/font&gt;" style="text;html=1;align=center;verticalAlign=middle;whiteSpace=wrap;rounded=0;" vertex="1" parent="1">
          <mxGeometry x="-650" y="270" width="90" height="30" as="geometry" />
        </mxCell>
        <mxCell id="kAYmLj9WjToZqsz8n3UT-26" style="edgeStyle=orthogonalEdgeStyle;rounded=0;orthogonalLoop=1;jettySize=auto;html=1;entryX=0.25;entryY=0;entryDx=0;entryDy=0;" edge="1" parent="1" source="kAYmLj9WjToZqsz8n3UT-23" target="kAYmLj9WjToZqsz8n3UT-1">
          <mxGeometry relative="1" as="geometry">
            <Array as="points">
              <mxPoint x="-625" y="390" />
              <mxPoint x="-485" y="390" />
            </Array>
          </mxGeometry>
        </mxCell>
        <mxCell id="kAYmLj9WjToZqsz8n3UT-23" value="&lt;font style=&quot;font-size: 8px;&quot;&gt;ExibirPagina();&lt;/font&gt;&lt;div&gt;&lt;font style=&quot;font-size: 8px;&quot;&gt;adicionarCorreioVoz();&lt;/font&gt;&lt;/div&gt;&lt;div&gt;&lt;font style=&quot;font-size: 8px;&quot;&gt;atualizarPagina();&lt;/font&gt;&lt;/div&gt;" style="text;html=1;align=left;verticalAlign=middle;whiteSpace=wrap;rounded=0;" vertex="1" parent="1">
          <mxGeometry x="-690" y="310" width="130" height="30" as="geometry" />
        </mxCell>
        <mxCell id="kAYmLj9WjToZqsz8n3UT-29" value="" style="shape=waypoint;sketch=0;size=6;pointerEvents=1;points=[];fillColor=default;resizable=0;rotatable=0;perimeter=centerPerimeter;snapToPoint=1;rounded=0;" vertex="1" parent="1">
          <mxGeometry x="-400" y="490" width="20" height="20" as="geometry" />
        </mxCell>
      </root>
    </mxGraphModel>
  </diagram>
</mxfile>
